<svg xmlns="http://www.w3.org/2000/svg" viewBox="0 0 480.35 114.49" fill="#edf6e7"><path d="M16.82 90.47H0v-84h33.63a32.81 32.81 0 0 1 8.91 1.2 33.6 33.6 0 0 1 8 3.39 34.4 34.4 0 0 1 12.07 12.1 34.8 34.8 0 0 1 3.4 8 33.45 33.45 0 0 1 .11 17.35 34.33 34.33 0 0 1-3.12 7.8 32.8 32.8 0 0 1-5 6.79 33.47 33.47 0 0 1-6.57 5.4l9.32 22H43l-7.37-16.97-18.8.12zm0-67.2V56.9h16.8a16.39 16.39 0 0 0 6.51-1.31 16.89 16.89 0 0 0 8.93-9 16.84 16.84 0 0 0 0-13.07 16.83 16.83 0 0 0-8.93-9 16.22 16.22 0 0 0-6.51-1.32zm119.64 35.26a34 34 0 0 1-2.46 13.1 32.84 32.84 0 0 1-6.86 10.49 32 32 0 0 1-10.17 7 31.81 31.81 0 0 1-25 0 32.14 32.14 0 0 1-17.09-17.49 33.79 33.79 0 0 1-2.52-13.1 34.35 34.35 0 0 1 2.52-13.24 32.61 32.61 0 0 1 6.89-10.52A32.21 32.21 0 0 1 92 27.83a31.06 31.06 0 0 1 12.45-2.52 32.67 32.67 0 0 1 12.51 2.38 30.16 30.16 0 0 1 10.17 6.73A32 32 0 0 1 134 44.91a35.68 35.68 0 0 1 2.46 13.62zm-16.1 0a18.64 18.64 0 0 0-1.26-7 16.62 16.62 0 0 0-3.43-5.39 14.79 14.79 0 0 0-5.06-3.45 16.41 16.41 0 0 0-12.37 0 14.62 14.62 0 0 0-5 3.45 16.65 16.65 0 0 0-3.37 5.39 19 19 0 0 0-1.23 7 18.11 18.11 0 0 0 1.23 6.74 17 17 0 0 0 3.37 5.39 15.78 15.78 0 0 0 5 3.61 14.79 14.79 0 0 0 6.18 1.32 15.55 15.55 0 0 0 6.19-1.24 15.38 15.38 0 0 0 5.06-3.45 16.2 16.2 0 0 0 3.43-5.39 18.72 18.72 0 0 0 1.26-6.98zm85.7 24.03A31 31 0 0 1 203.56 95a32.24 32.24 0 0 1-6.89 10.14 32.81 32.81 0 0 1-10.19 6.86 31.08 31.08 0 0 1-12.48 2.49l-8-.12v-16l7.9.12a18.7 18.7 0 0 0 6.38-1 12.91 12.91 0 0 0 7.36-6.48 24.77 24.77 0 0 0 1.73-4.57 7.08 7.08 0 0 1-2.7 2.49 18.5 18.5 0 0 1-3.9 1.59 25.57 25.57 0 0 1-4.45.85l-4.3.23a33.7 33.7 0 0 1-12.45-2.29 29.77 29.77 0 0 1-17.08-16.93A36.35 36.35 0 0 1 142 58.53a34.15 34.15 0 0 1 2.52-13.18 32.85 32.85 0 0 1 6.89-10.55 31.86 31.86 0 0 1 10.19-7 31.06 31.06 0 0 1 12.4-2.49 24.75 24.75 0 0 1 6 .76 32.24 32.24 0 0 1 5.8 2.11 36.65 36.65 0 0 1 5.36 3.17 45.53 45.53 0 0 1 4.84 3.92l6.2-7.44h3.86zM190 58.53a16.61 16.61 0 0 0-1.26-6.35 18.17 18.17 0 0 0-3.43-5.45 17.08 17.08 0 0 0-5.06-3.81 13.76 13.76 0 0 0-6.25-1.44 17.16 17.16 0 0 0-6.18 1.12 14.05 14.05 0 0 0-5 3.28 15.42 15.42 0 0 0-3.37 5.36 20.18 20.18 0 0 0-1.23 7.29 19.24 19.24 0 0 0 1.23 7.07 16.3 16.3 0 0 0 3.35 5.4 14.82 14.82 0 0 0 5 3.42 15.84 15.84 0 0 0 6.2 1.17 13.76 13.76 0 0 0 6.19-1.44 17.08 17.08 0 0 0 5.06-3.81 18.17 18.17 0 0 0 3.43-5.45 16.62 16.62 0 0 0 1.32-6.36zm47.13-47.87a10.12 10.12 0 0 1-.85 4.16 10.75 10.75 0 0 1-2.28 3.37 11.26 11.26 0 0 1-3.43 2.29 10.75 10.75 0 0 1-8.38 0 10.89 10.89 0 0 1-3.4-2.29 10.67 10.67 0 0 1-2.28-3.37 10.12 10.12 0 0 1-.85-4.16 10.25 10.25 0 0 1 .85-4.13 10.81 10.81 0 0 1 2.28-3.4 11 11 0 0 1 3.4-2.28 10.75 10.75 0 0 1 8.38 0A11.42 11.42 0 0 1 234 3.13a10.89 10.89 0 0 1 2.31 3.4 10.25 10.25 0 0 1 .82 4.13zm-2.75 79.8h-16.12V27.7h16.12zm43.62.01a27.15 27.15 0 0 1-10.9-2.2 28.26 28.26 0 0 1-15-15A27.15 27.15 0 0 1 250 62.4V43.77h-7.8V27.83h7.8V2.75h15.9v25.08h24.26v15.94H265.9V62.4a11.84 11.84 0 0 0 .94 4.72 12.16 12.16 0 0 0 2.57 3.88 12.48 12.48 0 0 0 3.87 2.6 11.73 11.73 0 0 0 4.75 1h12.13v15.87zm46.08-15.35a9.65 9.65 0 0 0 1.88.38l1.87.1a15.71 15.71 0 0 0 4.51-.65 16.31 16.31 0 0 0 4.08-1.84 15 15 0 0 0 3.39-2.93 15.73 15.73 0 0 0 2.44-3.84L354 78.1a31.94 31.94 0 0 1-5.13 5.69 33.11 33.11 0 0 1-6.27 4.28 31.22 31.22 0 0 1-7.09 2.66 32.69 32.69 0 0 1-20.1-1.55 31.4 31.4 0 0 1-10.19-6.86 32.12 32.12 0 0 1-6.89-10.46 34.37 34.37 0 0 1-2.52-13.33 35.52 35.52 0 0 1 2.52-13.59 30.77 30.77 0 0 1 17.08-17.23 32.41 32.41 0 0 1 12.45-2.4 31.79 31.79 0 0 1 7.68.94 32.65 32.65 0 0 1 7.12 2.69 33.18 33.18 0 0 1 6.3 4.31 31.72 31.72 0 0 1 5.12 5.75zm8.2-33a9.63 9.63 0 0 0-2.2-.53 20.7 20.7 0 0 0-2.26-.12 16 16 0 0 0-6.18 1.21 14.82 14.82 0 0 0-5 3.42 16.4 16.4 0 0 0-3.37 5.36 19.22 19.22 0 0 0-1.28 7.07l.1 2 .3 2.25c.13.76.3 1.5.5 2.2a8.39 8.39 0 0 0 .76 1.87zm84.2-1.92L404.77 52a15.87 15.87 0 0 0-2.41-4.42 16.2 16.2 0 0 0-3.42-3.31 14.9 14.9 0 0 0-4.13-2.05 15.11 15.11 0 0 0-4.58-.71 14.51 14.51 0 0 0-6.18 1.35 15.27 15.27 0 0 0-5 3.78 18.26 18.26 0 0 0-3.36 5.77 21 21 0 0 0-1.24 7.39 15.33 15.33 0 0 0 1.24 6.15A16.35 16.35 0 0 0 379 71a15.94 15.94 0 0 0 15.74 4 16.41 16.41 0 0 0 4.07-1.84 15.3 15.3 0 0 0 3.4-2.93 16 16 0 0 0 2.43-3.84l11.73 11.7a31.94 31.94 0 0 1-5.13 5.69 32.49 32.49 0 0 1-6.24 4.28 31.22 31.22 0 0 1-7.09 2.66 31.91 31.91 0 0 1-7.65.91 31.39 31.39 0 0 1-12.45-2.49 32.2 32.2 0 0 1-17.08-17 30.85 30.85 0 0 1-2.52-12.42 35.79 35.79 0 0 1 2.52-13.48 34.83 34.83 0 0 1 6.89-10.93A32.75 32.75 0 0 1 377.78 28a29.29 29.29 0 0 1 12.45-2.7 30.31 30.31 0 0 1 7.71 1 31.08 31.08 0 0 1 13.54 7.56 28.74 28.74 0 0 1 5 6.33zm23.8 50.27h-16V2.75h16v27.72a18.78 18.78 0 0 1 5.92-3.08 21.81 21.81 0 0 1 6.21-.91 27.33 27.33 0 0 1 10.9 2.2 27.8 27.8 0 0 1 8.88 6 28.69 28.69 0 0 1 6 9 27.37 27.37 0 0 1 2.2 10.93v35.86h-16.14V54.6h.12a11.86 11.86 0 0 0-.94-4.66 12.35 12.35 0 0 0-2.58-3.84 12.22 12.22 0 0 0-3.84-2.58 11.61 11.61 0 0 0-4.63-.93 12.1 12.1 0 0 0-8.61 3.51 12.35 12.35 0 0 0-2.55 3.89 11.86 11.86 0 0 0-.94 4.66z"/></svg>